<?xml version="1.0" encoding="utf-8"?>
<!-- Generator: Adobe Illustrator 26.2.1, SVG Export Plug-In . SVG Version: 6.00 Build 0)  -->
<svg version="1.1" id="Layer_1" xmlns="http://www.w3.org/2000/svg" xmlns:xlink="http://www.w3.org/1999/xlink" x="0px" y="0px"
	 viewBox="0 0 100 100" style="enable-background:new 0 0 100 100;" xml:space="preserve">
<style type="text/css">
	.st0{fill-rule:evenodd;clip-rule:evenodd;fill:#FFDE00;}
	.st1{fill-rule:evenodd;clip-rule:evenodd;fill:#E9E9E9;}
	.st2{fill-rule:evenodd;clip-rule:evenodd;fill:#FFFFFF;}
</style>
<path class="st0" d="M79.9,43.6h-4c-1.1,0-2-0.9-2-2s0.9-2,2-2h4c1.1,0,2,0.9,2,2C81.9,42.7,81,43.6,79.9,43.6z"/>
<path class="st0" d="M72.1,30.3c-0.8,0.8-2,0.8-2.8,0s-0.8-2,0-2.8l2.8-2.8c0.8-0.8,2-0.8,2.8,0s0.8,2,0,2.8L72.1,30.3z"/>
<path class="st1" d="M69.1,45.9L69.1,45.9c1.7,2.1,2.8,4.8,2.8,7.7c0,6.6-5.4,12-12,12c-2.8,0-12.8,0-16,0c-8.8,0-16-7.2-16-16
	s7.2-16,16-16c1.6,0,3.1,0.2,4.5,0.7c2.2-2.8,5.6-4.7,9.5-4.7c6.6,0,12,5.4,12,12C69.9,43.2,69.6,44.6,69.1,45.9z"/>
<path class="st2" d="M31.9,49.6c0,6.6,5.4,12,12,12c3.6,0,13,0,16,0c4.4,0,8-3.6,8-8s-3.6-8-8-8c-1.6,0-3.1,0.5-4.3,1.3
	c-1.2-5.3-6-9.3-11.7-9.3C37.3,37.6,31.9,43,31.9,49.6z"/>
<path class="st0" d="M57.9,25.6c-1.1,0-2-0.9-2-2v-4c0-1.1,0.9-2,2-2s2,0.9,2,2v4C59.9,24.7,59,25.6,57.9,25.6z"/>
<path class="st0" d="M43.8,30.3L41,27.5c-0.8-0.8-0.8-2,0-2.8s2-0.8,2.8,0l2.8,2.8c0.8,0.8,0.8,2,0,2.8
	C45.9,31.1,44.6,31.1,43.8,30.3z"/>
<path class="st0" d="M62.4,35c0,0,3.7,3.4,3.4,8.2c0,0,2.1,0.9,3.3,2.8c0.1-0.3,0.2-0.7,0.3-1l0,0c0.3-1,0.5-2.1,0.5-3.3
	c0-4.5-2.5-8.4-6.1-10.5c-2.3-1.1-4.4-1.5-6.2-1.5c-0.3,0-0.7,0-1,0.1c-0.1,0-0.1,0-0.2,0c-0.4,0.1-0.8,0.1-1.2,0.2
	c-0.1,0-0.1,0-0.2,0.1c-0.3,0.1-0.6,0.2-1,0.3c-2.4,0.8-4,2.3-4.9,3.2c-0.2,0.3-0.5,0.5-0.7,0.8c0,0,2.2,0.5,3.8,1.7
	C52.3,36,56.5,32,62.4,35z"/>
<path class="st2" d="M57.9,33.6c-2.2,0-4.2,0.9-5.7,2.3c2.3,1.4,4.3,3.5,5.6,5.9c0.7-0.1,1.3-0.2,2-0.2c2.1,0,4.1,0.6,5.9,1.5l0,0
	c0.1-0.5,0.2-1,0.2-1.5C65.9,37.2,62.4,33.6,57.9,33.6z"/>
</svg>
