<?xml version="1.0" encoding="utf-8"?>
<!-- Generator: Adobe Illustrator 26.2.1, SVG Export Plug-In . SVG Version: 6.00 Build 0)  -->
<svg version="1.1" id="Layer_1" xmlns="http://www.w3.org/2000/svg" xmlns:xlink="http://www.w3.org/1999/xlink" x="0px" y="0px"
	 viewBox="0 0 45 39.1" style="enable-background:new 0 0 45 39.1;" xml:space="preserve">
<style type="text/css">
	.st0{fill-rule:evenodd;clip-rule:evenodd;fill:#E9E9E9;}
	.st1{fill-rule:evenodd;clip-rule:evenodd;fill:#424CDA;}
</style>
<path class="st0" d="M41.8,20.2L41.8,20.2c1.4,1.9,2.2,4.3,2.2,6.9c0,6.6-5.4,12-12,12c-2.8,0-12.8,0-16,0c-8.8,0-16-7.2-16-16
	s7.2-16,16-16c2,0,3.9,0.4,5.7,1l0,0c1.6-4.7,6.1-8,11.3-8c0.8,0,1.5,0.1,2.2,0.2C35.1,0.9,35,1.5,35,2.1c0,4.4,3.6,8,8,8
	c0.6,0,1.2-0.1,1.8-0.2c0.1,0.7,0.2,1.5,0.2,2.2C44.9,15.2,43.7,18,41.8,20.2z M3.9,23c0,6.6,5.4,12,12,12c3.6,0,13,0,16,0
	c4.4,0,8-3.6,8-8s-3.6-8-8-8c-1.6,0-3.1,0.5-4.3,1.3c-1.2-5.3-6-9.3-11.7-9.3C9.3,11,3.9,16.4,3.9,23z M23.5,8.9L23.5,8.9L23.5,8.9z
	 M31.2,4.3C28.3,5,26,7.2,25.3,10.1l0,0c1.9,1.4,3.5,3.2,4.7,5.2c0.7-0.1,1.3-0.2,2-0.2c2.6,0,5,0.8,7,2.3l0,0
	c0.9-1,1.5-2.2,1.8-3.5C35.9,12.9,32.1,9.1,31.2,4.3z"/>
<path class="st1" d="M31.2,4.2c0.9,4.9,4.7,8.7,9.6,9.6c-0.3,1.3-0.9,2.5-1.8,3.5c0,0,1.8,1.2,2.8,2.8c2-2.1,3.2-5,3.2-8.1
	c0-0.8-0.1-1.5-0.2-2.2C44.2,9.9,43.6,10,43,10c-4.4,0-8-3.6-8-8c0-0.6,0.1-1.2,0.2-1.8C34.5,0.1,33.7,0,33,0c-5.2,0-9.7,3.4-11.3,8
	c0,0,2.1,0.7,3.6,1.9C26,7.2,28.3,4.9,31.2,4.2z"/>
</svg>
