<?xml version="1.0" encoding="utf-8"?>
<!-- Generator: Adobe Illustrator 26.2.1, SVG Export Plug-In . SVG Version: 6.00 Build 0)  -->
<svg version="1.1" id="Layer_1" xmlns="http://www.w3.org/2000/svg" xmlns:xlink="http://www.w3.org/1999/xlink" x="0px" y="0px"
	 viewBox="0 0 44 32" style="enable-background:new 0 0 44 32;" xml:space="preserve">
<style type="text/css">
	.st0{fill-rule:evenodd;clip-rule:evenodd;fill:#E9E9E9;}
</style>
<path class="st0" d="M16,32C7.2,32,0,24.8,0,16S7.2,0,16,0c6,0,11.2,3.3,14,8.2C30.7,8.1,31.3,8,32,8c6.6,0,12,5.4,12,12
	s-5.4,12-12,12C29.3,32,19.2,32,16,32z M32,28c4.4,0,8-3.6,8-8s-3.6-8-8-8c-1.6,0-3.1,0.5-4.3,1.3C26.5,8,21.7,4,16,4
	C9.4,4,4,9.4,4,16s5.4,12,12,12C19.7,28,29,28,32,28z"/>
</svg>
