<?xml version="1.0" encoding="utf-8"?>
<!-- Generator: Adobe Illustrator 26.2.1, SVG Export Plug-In . SVG Version: 6.00 Build 0)  -->
<svg version="1.1" id="Layer_1" xmlns="http://www.w3.org/2000/svg" xmlns:xlink="http://www.w3.org/1999/xlink" x="0px" y="0px"
	 viewBox="0 0 46.8 36.3" style="enable-background:new 0 0 46.8 36.3;" xml:space="preserve">
<style type="text/css">
	.st0{fill-rule:evenodd;clip-rule:evenodd;fill:#424CDA;}
	.st1{fill-rule:evenodd;clip-rule:evenodd;fill:#CECECE;}
</style>
<path class="st0" d="M38.9,5.2c-0.5,0-0.8,0.1-1.3,0.1c-1.8-3.2-5.2-5.3-9-5.3C24,0,20,3.1,18.7,7.4l2.4,0.9C22,5,25,2.6,28.6,2.6
	c3.7,0,6.8,2.6,7.6,6C37,8.1,37.9,7.8,39,7.8c2.8,0,5.2,2.3,5.2,5.2c0,1.9-1,3.6-2.6,4.5v2.8c3-1,5.2-3.9,5.2-7.3
	C46.6,8.7,43.1,5.2,38.9,5.2z"/>
<path class="st1" d="M16,36.3c-8.8,0-16-7.2-16-16s7.2-16,16-16c6,0,11.2,3.3,14,8.2c0.7-0.1,1.3-0.2,2-0.2c6.6,0,12,5.4,12,12
	s-5.4,12-12,12C29.3,36.3,19.2,36.3,16,36.3z M32,32.3c4.4,0,8-3.6,8-8s-3.6-8-8-8c-1.6,0-3.1,0.5-4.3,1.3c-1.2-5.3-6-9.3-11.7-9.3
	c-6.6,0-12,5.4-12,12s5.4,12,12,12C19.7,32.3,29,32.3,32,32.3z"/>
</svg>
