<?xml version="1.0" encoding="utf-8"?>
<!-- Generator: Adobe Illustrator 26.2.1, SVG Export Plug-In . SVG Version: 6.00 Build 0)  -->
<svg version="1.1" id="Layer_1" xmlns="http://www.w3.org/2000/svg" xmlns:xlink="http://www.w3.org/1999/xlink" x="0px" y="0px"
	 viewBox="0 0 46.8 48.3" style="enable-background:new 0 0 46.8 48.3;" xml:space="preserve">
<style type="text/css">
	.st0{fill-rule:evenodd;clip-rule:evenodd;fill:#E9E9E9;}
	.st1{fill-rule:evenodd;clip-rule:evenodd;fill:#424CDA;}
</style>
<path class="st0" d="M38.9,5.2c-0.5,0-0.8,0.1-1.3,0.1c-1.8-3.2-5.2-5.3-9-5.3C24,0,20,3.1,18.7,7.4l2.4,0.9C22,5,25,2.6,28.6,2.6
	c3.7,0,6.8,2.6,7.6,6C37,8.1,37.9,7.8,39,7.8c2.8,0,5.2,2.3,5.2,5.2c0,1.9-1,3.6-2.6,4.5v2.8c3-1,5.2-3.9,5.2-7.3
	C46.6,8.7,43.1,5.2,38.9,5.2z"/>
<path class="st0" d="M36,35.6v-4.4c2.4-1.4,4-4,4-6.9c0-4.4-3.6-8-8-8c-1.6,0-3.1,0.5-4.3,1.3c-1.2-5.3-6-9.3-11.7-9.3
	c-6.6,0-12,5.4-12,12c0,3.5,1.5,6.7,4,8.9v4.9c-4.8-2.8-8-7.9-8-13.8c0-8.8,7.2-16,16-16c6,0,11.2,3.3,14,8.2c0.7-0.1,1.3-0.2,2-0.2
	c6.6,0,12,5.4,12,12C44,29.6,40.7,34,36,35.6z"/>
<path class="st1" d="M14,24.3c1.1,0,2,0.9,2,2v4c0,1.1-0.9,2-2,2s-2-0.9-2-2v-4C12,25.2,12.9,24.3,14,24.3z"/>
<path class="st1" d="M14,36.3c1.1,0,2,0.9,2,2v4c0,1.1-0.9,2-2,2s-2-0.9-2-2v-4C12,37.2,12.9,36.3,14,36.3z"/>
<path class="st1" d="M22,28.3c1.1,0,2,0.9,2,2v4c0,1.1-0.9,2-2,2s-2-0.9-2-2v-4C20,29.2,20.9,28.3,22,28.3z"/>
<path class="st1" d="M22,40.3c1.1,0,2,0.9,2,2v4c0,1.1-0.9,2-2,2s-2-0.9-2-2v-4C20,41.2,20.9,40.3,22,40.3z"/>
<path class="st1" d="M30,24.3c1.1,0,2,0.9,2,2v4c0,1.1-0.9,2-2,2s-2-0.9-2-2v-4C28,25.2,28.9,24.3,30,24.3z"/>
<path class="st1" d="M30,36.3c1.1,0,2,0.9,2,2v4c0,1.1-0.9,2-2,2s-2-0.9-2-2v-4C28,37.2,28.9,36.3,30,36.3z"/>
</svg>
