<?xml version="1.0" encoding="utf-8"?>
<!-- Generator: Adobe Illustrator 26.2.1, SVG Export Plug-In . SVG Version: 6.00 Build 0)  -->
<svg version="1.1" id="Layer_1" xmlns="http://www.w3.org/2000/svg" xmlns:xlink="http://www.w3.org/1999/xlink" x="0px" y="0px"
	 viewBox="0 0 44 44" style="enable-background:new 0 0 44 44;" xml:space="preserve">
<style type="text/css">
	.st0{fill-rule:evenodd;clip-rule:evenodd;fill:#E9E9E9;}
	.st1{fill-rule:evenodd;clip-rule:evenodd;fill:#424CDA;}
</style>
<path class="st0" d="M36,31.3v-4.4c2.4-1.4,4-4,4-6.9c0-4.4-3.6-8-8-8c-1.6,0-3.1,0.5-4.3,1.3C26.5,8,21.7,4,16,4C9.4,4,4,9.4,4,16
	c0,3.5,1.5,6.7,4,8.9v4.9C3.2,27,0,21.9,0,16C0,7.2,7.2,0,16,0c6,0,11.2,3.3,14,8.2C30.7,8.1,31.3,8,32,8c6.6,0,12,5.4,12,12
	C44,25.3,40.7,29.7,36,31.3z"/>
<path class="st1" d="M14,20c1.1,0,2,0.9,2,2v4c0,1.1-0.9,2-2,2s-2-0.9-2-2v-4C12,20.9,12.9,20,14,20z"/>
<path class="st1" d="M14,32c1.1,0,2,0.9,2,2v4c0,1.1-0.9,2-2,2s-2-0.9-2-2v-4C12,32.9,12.9,32,14,32z"/>
<path class="st1" d="M22,24c1.1,0,2,0.9,2,2v4c0,1.1-0.9,2-2,2s-2-0.9-2-2v-4C20,24.9,20.9,24,22,24z"/>
<path class="st1" d="M22,36c1.1,0,2,0.9,2,2v4c0,1.1-0.9,2-2,2s-2-0.9-2-2v-4C20,36.9,20.9,36,22,36z"/>
<path class="st1" d="M30,20c1.1,0,2,0.9,2,2v4c0,1.1-0.9,2-2,2s-2-0.9-2-2v-4C28,20.9,28.9,20,30,20z"/>
<path class="st1" d="M30,32c1.1,0,2,0.9,2,2v4c0,1.1-0.9,2-2,2s-2-0.9-2-2v-4C28,32.9,28.9,32,30,32z"/>
</svg>
