<?xml version="1.0" encoding="utf-8"?>
<!-- Generator: Adobe Illustrator 26.2.1, SVG Export Plug-In . SVG Version: 6.00 Build 0)  -->
<svg version="1.1" id="Layer_1" xmlns="http://www.w3.org/2000/svg" xmlns:xlink="http://www.w3.org/1999/xlink" x="0px" y="0px"
	 viewBox="0 0 44.9 51" style="enable-background:new 0 0 44.9 51;" xml:space="preserve">
<style type="text/css">
	.st0{fill-rule:evenodd;clip-rule:evenodd;fill:#424CDA;}
	.st1{fill-rule:evenodd;clip-rule:evenodd;fill:#E9E9E9;}
</style>
<path class="st0" d="M31.1,4.2c0.9,4.9,4.7,8.7,9.6,9.6c-0.3,1.3-0.9,2.5-1.8,3.5c0,0,1.8,1.2,2.8,2.8c2-2.1,3.2-5,3.2-8.1
	c0-0.8-0.1-1.5-0.2-2.2c-0.6,0.1-1.2,0.2-1.8,0.2c-4.4,0-8-3.6-8-8c0-0.6,0.1-1.2,0.2-1.8C34.4,0.1,33.6,0,32.9,0
	c-5.2,0-9.7,3.4-11.3,8c0,0,2.1,0.7,3.6,1.9C25.9,7.2,28.2,4.9,31.1,4.2z"/>
<path class="st1" d="M36,38.3v-4.4c2.4-1.4,4-4,4-6.9c0-4.4-3.6-8-8-8c-1.6,0-3.1,0.5-4.3,1.3C26.5,15,21.7,11,16,11
	C9.4,11,4,16.4,4,23c0,3.5,1.5,6.7,4,8.9v4.9C3.2,34,0,28.9,0,23C0,14.2,7.2,7,16,7c6,0,11.2,3.3,14,8.2c0.7-0.1,1.3-0.2,2-0.2
	c6.6,0,12,5.4,12,12C44,32.3,40.7,36.7,36,38.3z"/>
<path class="st0" d="M14,27c1.1,0,2,0.9,2,2v4c0,1.1-0.9,2-2,2s-2-0.9-2-2v-4C12,27.9,12.9,27,14,27z"/>
<path class="st0" d="M14,39c1.1,0,2,0.9,2,2v4c0,1.1-0.9,2-2,2s-2-0.9-2-2v-4C12,39.9,12.9,39,14,39z"/>
<path class="st0" d="M22,31c1.1,0,2,0.9,2,2v4c0,1.1-0.9,2-2,2s-2-0.9-2-2v-4C20,31.9,20.9,31,22,31z"/>
<path class="st0" d="M22,43c1.1,0,2,0.9,2,2v4c0,1.1-0.9,2-2,2s-2-0.9-2-2v-4C20,43.9,20.9,43,22,43z"/>
<path class="st0" d="M30,27c1.1,0,2,0.9,2,2v4c0,1.1-0.9,2-2,2s-2-0.9-2-2v-4C28,27.9,28.9,27,30,27z"/>
<path class="st0" d="M30,39c1.1,0,2,0.9,2,2v4c0,1.1-0.9,2-2,2s-2-0.9-2-2v-4C28,39.9,28.9,39,30,39z"/>
</svg>
