<?xml version="1.0" encoding="utf-8"?>
<!-- Generator: Adobe Illustrator 26.2.1, SVG Export Plug-In . SVG Version: 6.00 Build 0)  -->
<svg version="1.1" id="Layer_1" xmlns="http://www.w3.org/2000/svg" xmlns:xlink="http://www.w3.org/1999/xlink" x="0px" y="0px"
	 viewBox="0 0 44 40.1" style="enable-background:new 0 0 44 40.1;" xml:space="preserve">
<style type="text/css">
	.st0{fill-rule:evenodd;clip-rule:evenodd;fill:#CECECE;}
	.st1{fill-rule:evenodd;clip-rule:evenodd;fill:#424CDA;}
	.st2{fill-rule:evenodd;clip-rule:evenodd;fill:#FFDE4A;}
</style>
<path class="st0" d="M36,31.3v-4.4c2.4-1.4,4-4,4-6.9c0-4.4-3.6-8-8-8c-1.6,0-3.1,0.5-4.3,1.3C26.5,8,21.7,4,16,4C9.4,4,4,9.4,4,16
	c0,3.5,1.5,6.7,4,8.9v4.9C3.2,27,0,21.9,0,16C0,7.2,7.2,0,16,0c6,0,11.2,3.3,14,8.2C30.7,8.1,31.3,8,32,8c6.6,0,12,5.4,12,12
	C44,25.3,40.7,29.7,36,31.3z"/>
<path class="st1" d="M14,32c-1.1,0-1-0.9-1-2v-8c0-1.1-0.1-2,1-2s1,0.9,1,2v8C15,31.1,15.1,32,14,32z"/>
<path class="st1" d="M22,36c-1.1,0-1-0.9-1-2v-8c0-1.1-0.1-2,1-2s1,0.9,1,2v8C23,35.1,23.1,36,22,36z"/>
<g>
	<path class="st2" d="M27.4,31.4c-1-0.5-0.5-1.2,0-2.2l3.4-7.2c0.5-1,0.8-1.8,1.8-1.4c1,0.5,0.5,1.2,0,2.2L29.2,30
		C28.7,31,28.4,31.9,27.4,31.4z"/>
	<path class="st2" d="M27.4,40c-1-0.5-0.5-1.2,0-2.2l3.4-7.2c0.5-1,0.8-1.8,1.8-1.4c1,0.5,0.5,1.2,0,2.2l-3.4,7.2
		C28.7,39.6,28.4,40.5,27.4,40z"/>
	<path class="st2" d="M27.3,30.7c-0.3-1.1,0.2-1.1,0.7-1.2l3.9-1c0.5-0.1,0.9-0.3,1.2,0.7c0.3,1.1-0.2,1.1-0.7,1.2l-3.9,1
		C27.9,31.6,27.5,31.8,27.3,30.7z"/>
</g>
</svg>
