<?xml version="1.0" encoding="utf-8"?>
<!-- Generator: Adobe Illustrator 26.2.1, SVG Export Plug-In . SVG Version: 6.00 Build 0)  -->
<svg version="1.1" id="Layer_1" xmlns="http://www.w3.org/2000/svg" xmlns:xlink="http://www.w3.org/1999/xlink" x="0px" y="0px"
	 viewBox="0 0 100 100" style="enable-background:new 0 0 100 100;" xml:space="preserve">
<style type="text/css">
	.st0{fill-rule:evenodd;clip-rule:evenodd;fill:#424CDA;}
	.st1{fill-rule:evenodd;clip-rule:evenodd;fill:#E9E9E9;}
	.st2{fill-rule:evenodd;clip-rule:evenodd;fill:#FFDE4A;}
</style>
<path class="st0" d="M59.1,30.8c0.9,5,4.7,8.8,9.7,9.7C68.5,41.8,67.9,43,67,44c0,0,1.8,1.2,2.8,2.8c2-2.1,3.2-5.1,3.2-8.2
	c0-0.8-0.1-1.5-0.2-2.2c-0.6,0.1-1.2,0.2-1.8,0.2c-4.4,0-8.1-3.6-8.1-8.1c0-0.6,0.1-1.2,0.2-1.8c-0.7-0.1-1.5-0.2-2.2-0.2
	c-5.3,0-9.8,3.4-11.4,8.1c0,0,2.1,0.7,3.6,1.9C53.8,33.8,56.1,31.5,59.1,30.8z"/>
<path class="st1" d="M64,64.9v-4.4c2.4-1.4,4-4,4-6.9c0-4.4-3.6-8-8-8c-1.6,0-3.1,0.5-4.3,1.3c-1.2-5.3-6-9.3-11.7-9.3
	c-6.6,0-12,5.4-12,12c0,3.5,1.5,6.7,4,8.9v4.9c-4.8-2.8-8-7.9-8-13.8c0-8.8,7.2-16,16-16c6,0,11.2,3.3,14,8.2c0.7-0.1,1.3-0.2,2-0.2
	c6.6,0,12,5.4,12,12C72,58.9,68.7,63.3,64,64.9z"/>
<path class="st0" d="M42,65.6c-1.1,0-1-0.9-1-2v-8c0-1.1-0.1-2,1-2s1,0.9,1,2v8C43,64.7,43.1,65.6,42,65.6z"/>
<path class="st0" d="M50,69.6c-1.1,0-1-0.9-1-2v-8c0-1.1-0.1-2,1-2s1,0.9,1,2v8C51,68.7,51.1,69.6,50,69.6z"/>
<g>
	<path class="st2" d="M55.4,65c-1-0.5-0.5-1.2,0-2.2l3.4-7.2c0.5-1,0.8-1.8,1.8-1.4c1,0.5,0.5,1.2,0,2.2l-3.4,7.2
		C56.7,64.6,56.4,65.5,55.4,65z"/>
	<path class="st2" d="M55.4,73.6c-1-0.5-0.5-1.2,0-2.2l3.4-7.2c0.5-1,0.8-1.8,1.8-1.4c1,0.5,0.5,1.2,0,2.2l-3.4,7.2
		C56.7,73.2,56.4,74.1,55.4,73.6z"/>
	<path class="st2" d="M55.3,64.3c-0.3-1.1,0.2-1.1,0.7-1.2l3.9-1c0.5-0.1,0.9-0.3,1.2,0.7c0.3,1.1-0.2,1.1-0.7,1.2l-3.9,1
		C55.9,65.2,55.5,65.4,55.3,64.3z"/>
</g>
</svg>
