<?xml version="1.0" encoding="utf-8"?>
<!-- Generator: Adobe Illustrator 26.2.1, SVG Export Plug-In . SVG Version: 6.00 Build 0)  -->
<svg version="1.1" id="Layer_1" xmlns="http://www.w3.org/2000/svg" xmlns:xlink="http://www.w3.org/1999/xlink" x="0px" y="0px"
	 viewBox="0 0 45 47.2" style="enable-background:new 0 0 45 47.2;" xml:space="preserve">
<style type="text/css">
	.st0{fill-rule:evenodd;clip-rule:evenodd;fill:#424CDA;}
	.st1{fill-rule:evenodd;clip-rule:evenodd;fill:#CECECE;}
	.st2{fill-rule:evenodd;clip-rule:evenodd;fill:#FFDE4A;}
</style>
<path class="st0" d="M31.1,4.3c0.9,5,4.7,8.8,9.7,9.7c-0.3,1.3-0.9,2.5-1.8,3.5c0,0,1.8,1.2,2.8,2.8c2-2.1,3.2-5.1,3.2-8.2
	c0-0.8-0.1-1.5-0.2-2.2c-0.6,0.1-1.2,0.2-1.8,0.2c-4.4,0-8.1-3.6-8.1-8.1c0-0.6,0.1-1.2,0.2-1.8C34.4,0.1,33.6,0,32.9,0
	c-5.3,0-9.8,3.4-11.4,8.1c0,0,2.1,0.7,3.6,1.9C25.8,7.3,28.1,5,31.1,4.3z"/>
<path class="st1" d="M36,38.4V34c2.4-1.4,4-4,4-6.9c0-4.4-3.6-8-8-8c-1.6,0-3.1,0.5-4.3,1.3c-1.2-5.3-6-9.3-11.7-9.3
	c-6.6,0-12,5.4-12,12c0,3.5,1.5,6.7,4,8.9v4.9C3.2,34.1,0,29,0,23.1c0-8.8,7.2-16,16-16c6,0,11.2,3.3,14,8.2c0.7-0.1,1.3-0.2,2-0.2
	c6.6,0,12,5.4,12,12C44,32.4,40.7,36.8,36,38.4z"/>
<path class="st0" d="M14,39.1c-1.1,0-1-0.9-1-2v-8c0-1.1-0.1-2,1-2s1,0.9,1,2v8C15,38.2,15.1,39.1,14,39.1z"/>
<path class="st0" d="M22,43.1c-1.1,0-1-0.9-1-2v-8c0-1.1-0.1-2,1-2s1,0.9,1,2v8C23,42.2,23.1,43.1,22,43.1z"/>
<g>
	<path class="st2" d="M27.4,38.5c-1-0.5-0.5-1.2,0-2.2l3.4-7.2c0.5-1,0.8-1.8,1.8-1.4c1,0.5,0.5,1.2,0,2.2l-3.4,7.2
		C28.7,38.1,28.4,39,27.4,38.5z"/>
	<path class="st2" d="M27.4,47.1c-1-0.5-0.5-1.2,0-2.2l3.4-7.2c0.5-1,0.8-1.8,1.8-1.4c1,0.5,0.5,1.2,0,2.2l-3.4,7.2
		C28.7,46.7,28.4,47.6,27.4,47.1z"/>
	<path class="st2" d="M27.3,37.8c-0.3-1.1,0.2-1.1,0.7-1.2l3.9-1c0.5-0.1,0.9-0.3,1.2,0.7c0.3,1.1-0.2,1.1-0.7,1.2l-3.9,1
		C27.9,38.7,27.5,38.9,27.3,37.8z"/>
</g>
</svg>
