<?xml version="1.0" encoding="utf-8"?>
<!-- Generator: Adobe Illustrator 26.2.1, SVG Export Plug-In . SVG Version: 6.00 Build 0)  -->
<svg version="1.1" id="Layer_1" xmlns="http://www.w3.org/2000/svg" xmlns:xlink="http://www.w3.org/1999/xlink" x="0px" y="0px"
	 viewBox="0 0 44 37.9" style="enable-background:new 0 0 44 37.9;" xml:space="preserve">
<style type="text/css">
	.st0{fill-rule:evenodd;clip-rule:evenodd;fill:#CECECE;}
	.st1{fill-rule:evenodd;clip-rule:evenodd;fill:#4FBCD4;}
</style>
<path class="st0" d="M34,31.8v-4.1c3.4-0.9,6-4,6-7.7c0-4.4-3.6-8-8-8c-1.6,0-3.1,0.5-4.3,1.3C26.5,8,21.7,4,16,4C9.4,4,4,9.4,4,16
	c0,4.4,2.4,8.3,6,10.4v4.4C4.1,28.4,0,22.7,0,16C0,7.2,7.2,0,16,0c6,0,11.2,3.3,14,8.2C30.7,8.1,31.3,8,32,8c6.6,0,12,5.4,12,12
	C44,25.9,39.7,30.8,34,31.8z"/>
<path class="st1" d="M15.1,25.9c0.6-1,1.8-1.3,2.7-0.7l2.2,1.3V24c0-1.1,0.9-2,2-2s2,0.9,2,2v2.5l2.2-1.3c1-0.6,2.2-0.2,2.7,0.7
	c0.6,1,0.2,2.2-0.7,2.7L26,29.9l2.2,1.3c1,0.6,1.3,1.8,0.7,2.7c-0.6,1-1.8,1.3-2.7,0.7L24,33.4v2.5c0,1.1-0.9,2-2,2s-2-0.9-2-2v-2.5
	l-2.2,1.3c-1,0.6-2.2,0.2-2.7-0.7c-0.6-1-0.2-2.2,0.7-2.7L18,30l-2.2-1.3C14.8,28.1,14.5,26.9,15.1,25.9z M22,27.9c1.1,0,2,0.9,2,2
	s-0.9,2-2,2s-2-0.9-2-2S20.9,27.9,22,27.9z"/>
</svg>
