<?xml version="1.0" encoding="UTF-8"?><svg id="a" xmlns="http://www.w3.org/2000/svg" xmlns:xlink="http://www.w3.org/1999/xlink" viewBox="0 0 308.1 308.1"><defs><style>.c{fill:url(#b);}.d{fill:#fff;}</style><radialGradient id="b" cx="154.05" cy="154.05" fx="154.05" fy="154.05" r="154.05" gradientTransform="matrix(1, 0, 0, 1, 0, 0)" gradientUnits="userSpaceOnUse"><stop offset="0" stop-color="#ffde00"/><stop offset=".48" stop-color="#ffdc01"/><stop offset=".65" stop-color="#ffd808"/><stop offset=".77" stop-color="#ffd114"/><stop offset=".87" stop-color="#ffc625"/><stop offset=".96" stop-color="#ffb83b"/><stop offset="1" stop-color="#ffb049"/></radialGradient></defs><circle class="c" cx="154.05" cy="154.05" r="154.05"/><path class="d" d="M147.76,100.17h0l-46.23,46.47c-3.46,3.48-3.45,9.11,.03,12.57,3.48,3.46,9.11,3.45,12.57-.03l31.04-31.19v73.65c0,4.91,3.98,8.89,8.89,8.89s8.89-3.98,8.89-8.89V127.99l31.04,31.19c3.46,3.48,9.09,3.49,12.57,.03,3.48-3.46,3.49-9.09,.03-12.57l-46.23-46.46h0c-3.48-3.49-9.12-3.48-12.59,0Z"/></svg>