<?xml version="1.0" standalone="no"?>
<!DOCTYPE svg PUBLIC "-//W3C//DTD SVG 20010904//EN"
 "http://www.w3.org/TR/2001/REC-SVG-20010904/DTD/svg10.dtd">
<svg version="1.0" xmlns="http://www.w3.org/2000/svg"
 width="860.000000pt" height="860.000000pt" viewBox="0 0 860.000000 860.000000"
 preserveAspectRatio="xMidYMid meet">
<metadata>
Created by potrace 1.14, written by Peter Selinger 2001-2017
</metadata>
<g transform="translate(0.000000,860.000000) scale(0.100000,-0.100000)"
fill="#000000" stroke="none">
<path d="M4220 7849 c-25 -5 -58 -11 -75 -14 -16 -3 -39 -8 -50 -12 -11 -4
-25 -8 -31 -9 -9 -1 -90 -25 -134 -39 -3 -1 -14 -5 -25 -10 -11 -4 -42 -17
-70 -27 -59 -23 -93 -38 -195 -86 -41 -20 -78 -35 -82 -34 -5 1 -8 -2 -8 -8 0
-5 -7 -10 -15 -10 -8 0 -15 -4 -15 -10 0 -5 -6 -10 -14 -10 -30 0 -437 -263
-505 -326 -14 -13 -29 -24 -32 -24 -3 0 -15 -8 -26 -17 -12 -10 -38 -31 -59
-48 -20 -16 -42 -35 -48 -40 -6 -6 -27 -23 -46 -39 -93 -75 -190 -166 -360
-336 -230 -230 -291 -297 -564 -620 -101 -120 -171 -208 -313 -390 -46 -59
-118 -159 -173 -240 -36 -52 -68 -96 -72 -98 -5 -2 -8 -10 -8 -18 0 -8 -3 -14
-8 -14 -4 0 -18 -20 -32 -45 -14 -25 -28 -45 -32 -45 -5 0 -8 -6 -8 -14 0 -7
-8 -24 -19 -37 -30 -38 -162 -274 -220 -393 -56 -116 -131 -297 -131 -319 0
-7 -4 -17 -9 -22 -8 -9 -47 -147 -54 -190 -1 -11 -6 -26 -10 -32 -5 -7 -6 -13
-3 -13 2 0 1 -14 -4 -31 -22 -77 -31 -350 -17 -494 9 -85 34 -218 58 -305 12
-41 22 -79 23 -85 17 -87 196 -475 219 -475 6 0 8 -3 4 -6 -5 -5 40 -86 65
-119 5 -5 29 -41 55 -80 25 -38 52 -77 59 -85 8 -8 36 -44 64 -80 45 -58 94
-116 170 -202 87 -98 322 -326 423 -410 28 -24 69 -60 92 -80 22 -21 44 -38
49 -38 5 0 16 -8 25 -18 9 -10 36 -33 61 -52 25 -19 50 -39 56 -45 11 -10 14
-12 129 -96 90 -66 258 -179 312 -210 22 -13 65 -38 95 -55 29 -17 58 -32 63
-34 6 -1 21 -10 35 -19 29 -21 272 -138 320 -156 3 -1 21 -9 40 -17 35 -15 70
-30 80 -33 6 -2 33 -12 83 -31 20 -8 54 -20 75 -28 42 -16 200 -66 222 -70 8
-2 22 -5 30 -9 14 -5 105 -30 123 -33 4 -1 10 -3 15 -4 4 -1 10 -2 13 -2 4 1
22 -3 40 -9 19 -5 45 -11 59 -14 39 -7 73 -14 100 -20 47 -10 75 -15 110 -20
19 -3 44 -6 55 -9 41 -7 121 -19 155 -22 19 -2 60 -5 90 -8 252 -24 566 -25
780 -1 87 9 146 17 151 21 4 2 23 6 43 9 46 8 200 47 334 85 84 23 277 92 339
121 24 10 46 19 49 19 13 0 276 132 351 176 330 194 613 440 811 704 31 41 59
77 62 80 34 27 263 443 263 477 0 7 3 13 7 13 5 0 28 53 35 80 1 3 5 12 8 20
36 81 118 374 140 500 3 14 10 52 16 85 6 33 13 85 17 115 3 30 7 69 9 85 24
193 25 635 1 825 -3 19 -7 58 -10 85 -8 78 -15 126 -27 183 -6 29 -12 66 -14
83 -3 17 -7 40 -11 51 -3 11 -7 30 -9 41 -1 12 -19 83 -39 157 -20 74 -38 142
-40 150 -19 73 -146 411 -174 467 -6 10 -40 81 -78 158 -71 147 -201 378 -215
383 -5 2 -9 8 -9 14 0 15 -180 276 -217 316 -7 7 -13 16 -13 20 0 4 -14 21
-30 39 -17 18 -30 34 -30 37 0 3 -12 18 -27 34 -16 16 -44 49 -63 73 -110 136
-370 397 -529 529 -29 25 -59 50 -65 55 -68 65 -451 335 -474 335 -5 0 -12 4
-14 8 -1 4 -32 25 -68 46 -36 20 -72 42 -80 47 -8 5 -51 27 -95 50 -44 22 -87
44 -95 49 -14 8 -79 38 -165 75 -100 44 -292 110 -405 140 -12 3 -118 26 -140
30 -14 3 -36 7 -50 10 -87 19 -359 27 -430 14z"/>
</g>
</svg>
